<mxfile host="app.diagrams.net" modified="2021-12-28T19:00:57.601Z" agent="5.0 (X11; Linux x86_64) AppleWebKit/537.36 (KHTML, like Gecko) Chrome/83.0.4103.116 Safari/537.36" etag="qrfbAKLTFInSuLEd-utO" version="16.1.0" type="github">
  <diagram id="Ov1h4u3V6laRxGbihOUu" name="Page-1">
    <mxGraphModel dx="542" dy="793" grid="1" gridSize="10" guides="1" tooltips="1" connect="1" arrows="1" fold="1" page="1" pageScale="1" pageWidth="827" pageHeight="1169" background="#ffffff" math="0" shadow="0">
      <root>
        <mxCell id="0" />
        <mxCell id="1" parent="0" />
        <mxCell id="wb5UmMnotkDdRdh3Yb_W-2" value="Controller" style="rounded=1;whiteSpace=wrap;html=1;fillColor=#fff2cc;strokeColor=#d6b656;glass=0;sketch=1;" vertex="1" parent="1">
          <mxGeometry x="190" y="70" width="120" height="60" as="geometry" />
        </mxCell>
        <mxCell id="wb5UmMnotkDdRdh3Yb_W-3" value="Service" style="rounded=1;whiteSpace=wrap;html=1;glass=0;sketch=1;fillColor=#d5e8d4;strokeColor=#82b366;" vertex="1" parent="1">
          <mxGeometry x="190" y="270" width="120" height="60" as="geometry" />
        </mxCell>
        <mxCell id="wb5UmMnotkDdRdh3Yb_W-5" value="Text" style="text;html=1;strokeColor=none;fillColor=none;align=center;verticalAlign=middle;whiteSpace=wrap;rounded=0;glass=0;labelBorderColor=none;sketch=1;" vertex="1" parent="1">
          <mxGeometry x="250" y="390" width="60" height="30" as="geometry" />
        </mxCell>
        <mxCell id="wb5UmMnotkDdRdh3Yb_W-7" value="&lt;h1&gt;Heading&lt;/h1&gt;&lt;p&gt;Lorem ipsum dolor sit amet, consectetur adipisicing elit, sed do eiusmod tempor incididunt ut labore et dolore magna aliqua.&lt;/p&gt;" style="text;html=1;strokeColor=none;fillColor=none;spacing=5;spacingTop=-20;whiteSpace=wrap;overflow=hidden;rounded=0;glass=0;labelBorderColor=none;sketch=1;" vertex="1" parent="1">
          <mxGeometry x="330" y="50" width="190" height="120" as="geometry" />
        </mxCell>
      </root>
    </mxGraphModel>
  </diagram>
</mxfile>
